<svg width="21" height="21" viewBox="0 0 21 21" fill="none" xmlns="http://www.w3.org/2000/svg">
<path d="M10.3335 0.246094C15.8565 0.246094 20.3335 4.72309 20.3335 10.2461C20.3335 15.7691 15.8565 20.2461 10.3335 20.2461C4.8105 20.2461 0.333496 15.7691 0.333496 10.2461C0.333496 4.72309 4.8105 0.246094 10.3335 0.246094ZM10.3335 4.24609C10.0683 4.24609 9.81393 4.35145 9.62639 4.53899C9.43885 4.72652 9.3335 4.98088 9.3335 5.24609V10.2461C9.33355 10.5113 9.43895 10.7656 9.6265 10.9531L12.6265 13.9531C12.8151 14.1353 13.0677 14.236 13.3299 14.2338C13.5921 14.2315 13.8429 14.1263 14.0283 13.9409C14.2137 13.7555 14.3189 13.5047 14.3212 13.2425C14.3234 12.9803 14.2227 12.7277 14.0405 12.5391L11.3335 9.83209V5.24609C11.3335 4.98088 11.2281 4.72652 11.0406 4.53899C10.8531 4.35145 10.5987 4.24609 10.3335 4.24609Z" fill="#918C8C"/>
</svg>
