<svg width="23" height="19" viewBox="0 0 23 19" fill="none" xmlns="http://www.w3.org/2000/svg">
<path d="M18.6252 1.73536H11.3179C11.0959 1.73604 10.8788 1.67078 10.694 1.54786L9.39083 0.67645C8.95931 0.387894 8.45165 0.234341 7.93255 0.235357H4.3752C3.67924 0.236101 3.01199 0.512902 2.51987 1.00502C2.02775 1.49715 1.75095 2.16439 1.7502 2.86036V3.98536H21.2502C21.2502 2.53786 20.0727 1.73536 18.6252 1.73536ZM19.3635 18.2354H3.63692C2.94814 18.2346 2.28727 17.9631 1.79682 17.4795C1.30638 16.9959 1.02566 16.3389 1.0152 15.6502L0.258639 7.92801V7.91489C0.233864 7.60538 0.273417 7.29409 0.37481 7.00062C0.476203 6.70714 0.637241 6.43783 0.84779 6.20962C1.05834 5.98142 1.31384 5.79926 1.59822 5.67461C1.8826 5.54997 2.1897 5.48553 2.5002 5.48536H20.5049C20.8153 5.48566 21.1223 5.55019 21.4066 5.6749C21.6908 5.7996 21.9462 5.98178 22.1567 6.20997C22.3671 6.43816 22.5281 6.70743 22.6294 7.00084C22.7308 7.29425 22.7703 7.60546 22.7455 7.91489V7.92801L21.9852 15.6502C21.9747 16.3389 21.694 16.9959 21.2036 17.4795C20.7131 17.9631 20.0523 18.2346 19.3635 18.2354Z" fill="#918C8C"/>
</svg>
