<svg width="21" height="21" viewBox="0 0 21 21" fill="none" xmlns="http://www.w3.org/2000/svg">
<path d="M12.2276 1.67953L13.9874 5.22823C14.2274 5.72222 14.8673 6.19605 15.4073 6.28678L18.5969 6.8211C20.6367 7.16388 21.1167 8.65595 19.6468 10.1278L17.1671 12.628C16.7471 13.0514 16.5172 13.868 16.6471 14.4528L17.3571 17.5478C17.917 19.9977 16.6271 20.9453 14.4774 19.6649L11.4877 17.8806C10.9478 17.558 10.0579 17.558 9.5079 17.8806L6.51827 19.6649C4.3785 20.9453 3.07865 19.9875 3.63859 17.5478L4.34851 14.4528C4.47849 13.868 4.24852 13.0514 3.82856 12.628L1.34884 10.1278C-0.111001 8.65595 0.35895 7.16388 2.39872 6.8211L5.58837 6.28678C6.11831 6.19605 6.75824 5.72222 6.99821 5.22823L8.758 1.67953C9.7179 -0.246041 11.2777 -0.246041 12.2276 1.67953Z" fill="#918C8C"/>
</svg>
